<?xml version="1.0" standalone="no"?>
<svg
  width="600"
  height="600"
  viewBox="0 0 600 600"
  xmlns="http://www.w3.org/2000/svg"
>
  <g transform="translate(300,300)">
    <path d="M142.6,-158.6C190.6,-129.8,239.1,-90.2,250.6,-41.7C262.1,6.9,236.7,64.4,201.3,107.3C166,150.2,120.6,178.5,71.7,195.7C22.8,213,-29.6,219.3,-74.7,203.6C-119.7,187.9,-157.3,150.2,-180.2,106.1C-203.1,62.1,-211.4,11.7,-208.1,-41.9C-204.9,-95.5,-190.2,-152.3,-153.6,-183.2C-117,-214.1,-58.5,-219,-5.6,-212.4C47.4,-205.8,94.7,-187.5,142.6,-158.6Z" fill="#f1f3f6" />
  </g>
</svg>
  